<?xml version="1.0" encoding="UTF-8"?>
<svg width="256" height="256" version="1.1"
     xmlns="http://www.w3.org/2000/svg"
     xmlns:xlink="http://www.w3.org/1999/xlink">
  <defs>
    <linearGradient id="Gradient" x1="0" x2="0" y1="0" y2="1">
      <stop offset="0%" style="stop-color:#C061CB;stop-opacity:1" />
      <stop offset="100%" style="stop-color:#1C71D8;stop-opacity:1" />
    </linearGradient>
    <filter id="alpha-to-white">
      <feColorMatrix in="SourceGraphic" type="matrix"
                     values="0 0 0 0 1 0 0 0 0 1 0 0 0 0 1 0 0 0 1 0"/>
    </filter>
    <g id="child-svg"><svg xmlns="http://www.w3.org/2000/svg" class="svg-icon" style="width: 1em; height: 1em;vertical-align: middle;fill: currentColor;overflow: hidden;" viewBox="0 0 1024 1024" version="1.1" height="12px" width="12px"><path d="M763.22133333 820.54106075a78.9830163 78.9830163 0 1 1 78.9830163-78.9830163A79.18933333 79.18933333 0 0 1 763.22133333 820.54106075z m0-120.14933334a41.19058963 41.19058963 0 1 0 41.26340742 41.16631704 41.26340741 41.26340741 0 0 0-41.26340742-41.19058963z" fill="#515151" /><path d="M762.10479408 691.30164148a18.71416889 18.71416889 0 0 1-18.89621333-18.89621333v-21.54192593a18.89621333 18.89621333 0 0 1 37.79242666 0v21.54192593a18.71416889 18.71416889 0 0 1-18.89621333 18.89621333z m-48.75150223 20.78947555a19.17534815 19.17534815 0 0 1-13.60478815-5.66765036l-15.10968888-15.49805037a18.96903111 18.96903111 0 0 1 27.20957629-26.45712593l15.10968889 15.49805038a19.05398518 19.05398518 0 0 1-0.37622518 26.8333511 19.56370963 19.56370963 0 0 1-13.22856297 5.29142518z m-20.02488888 49.5039526H672.19911111a18.89621333 18.89621333 0 0 1 0-37.79242666h21.16570074a18.89621333 18.89621333 0 1 1 0 37.79242666z m5.29142518 64.23741629a18.89621333 18.89621333 0 0 1-13.22856297-32.50100147l15.49805037-15.1096889a18.96903111 18.96903111 0 0 1 26.45712593 27.2095763l-15.49805037 15.1096889a19.56370963 19.56370963 0 0 1-13.22856296 5.29142517z m65.75445333 26.45712593a18.71416889 18.71416889 0 0 1-18.89621333-18.89621333v-21.54192593a18.89621333 18.89621333 0 0 1 37.79242667 0v21.54192593a18.71416889 18.71416889 0 0 1-18.89621334 18.88407703zM828.23547259 825.11644445a17.73112889 17.73112889 0 0 1-13.22856296-5.66765037l-15.49805038-15.49805038a18.96903111 18.96903111 0 0 1 26.82121483-26.86976l15.49805037 15.49805038a18.71416889 18.71416889 0 0 1 0 26.8333511 19.17534815 19.17534815 0 0 1-13.59265186 5.70405927z m26.06876444-64.98986667h-21.15356444a18.89621333 18.89621333 0 0 1 0-37.79242667h21.16570074a18.89621333 18.89621333 0 1 1 0 37.79242667z m-41.94304-48.36314075a19.56370963 19.56370963 0 0 1-13.22856295-5.29142518 19.04184889 19.04184889 0 0 1-0.37622519-26.8333511L814.19377778 663.7037037a18.96903111 18.96903111 0 0 1 27.2095763 26.45712593l-15.4373689 15.87427555a19.17534815 19.17534815 0 0 1-13.60478815 5.66765037z" fill="#515151" /><path d="M624.55201185 868.90420148H301.08330667a18.71416889 18.71416889 0 0 1-18.89621334-18.89621333V246.21511111a18.71416889 18.71416889 0 0 1 18.89621334-18.89621333h451.95567408A18.71416889 18.71416889 0 0 1 771.93519408 246.21511111v321.1385363a18.89621333 18.89621333 0 1 1-37.79242667 0V265.05064297H319.97952v566.07326814h304.62103703a18.89621333 18.89621333 0 0 1 0 37.79242667z" fill="#515151" /><path d="M301.08330667 767.2505837h-100.51280592a18.71416889 18.71416889 0 0 1-18.89621334-18.89621333v-608.75662222a18.71416889 18.71416889 0 0 1 18.89621334-18.89621333h423.55674073A18.71416889 18.71416889 0 0 1 643.072 139.59774815v106.94504296a18.89621333 18.89621333 0 0 1-37.79242667 0v-88.06096593H219.51525925v570.98846815h81.6165926a18.89621333 18.89621333 0 0 1 0 37.79242667z" fill="#515151" /><path d="M653.99466667 414.6911763H400.09121185a18.89621333 18.89621333 0 0 1 0-37.79242667H653.99466667a18.89621333 18.89621333 0 1 1 0 37.79242667z m0 149.64053333H400.09121185a18.89621333 18.89621333 0 0 1 0-37.79242666H653.99466667a18.89621333 18.89621333 0 1 1 0 37.79242666z m-101.61720889 150.01675852H400.09121185a18.89621333 18.89621333 0 0 1 0-37.79242667h152.28624593a18.89621333 18.89621333 0 1 1 0 37.79242667z" fill="#515151" /></svg></g>
  </defs>
  <rect
      width="256"
      height="256"
      fill="url(#Gradient)"
      ry="128"
      x="0"
      y="0" />
  <use xlink:href="#child-svg" filter="url(#alpha-to-white)"
       transform="matrix(10,0,0,10,64,64)" />
</svg>